# xmcd
#
# Track frame offsets:
#	150
#	22597
#	41380
#	55107
#	76615
#	96267
#	109347
#	127052
#	146150
#	154940
#	163747
#	181002
#
# Disc length: 2539 seconds
# Revision: 5
# Processed by: cddbd v1.5.2PL0 Copyright (c) Steve Scherf et al.
# Submitted via: dBpowerAMP V12.0
#
DISCID=9109e90c
DTITLE=Johnny Cash - Ride This Train
DYEAR=2008
DGENRE=Country
TTITLE0=LOADING COAL
TTITLE1=SLOW RIDER
TTITLE2=LUMBERJACK
TTITLE3=DORRAINE OF PONCHARTRAIN
TTITLE4=GOING TO MEMPHIS
TTITLE5=WHEN PAPA PLAYED THE DOBRO
TTITLE6=BOSS JACK
TTITLE7=OLD DOC BROWN
TTITLE8=THE FABLE OF WILLIE BROWN
TTITLE9=SECOND HONEYMOON
TTITLE10=THE BALLAD OF THE HARPWEAVER
TTITLE11=SMILING BILL MCCALL
EXTD=
EXTT0=
EXTT1=
EXTT2=
EXTT3=
EXTT4=
EXTT5=
EXTT6=
EXTT7=
EXTT8=
EXTT9=
EXTT10=
EXTT11=
PLAYORDER=
